<mxfile host="app.diagrams.net" modified="2024-08-20T09:31:05.066Z" agent="Mozilla/5.0 (Windows NT 10.0; Win64; x64) AppleWebKit/537.36 (KHTML, like Gecko) Chrome/127.0.0.0 Safari/537.36" etag="_t6nkda4c30QkWcjX7ds" version="24.5.4" type="github">
  <diagram name="第 1 页" id="GJu2xxcoTFwMfSf1zXex">
    <mxGraphModel dx="819" dy="426" grid="1" gridSize="10" guides="1" tooltips="1" connect="1" arrows="1" fold="1" page="1" pageScale="1" pageWidth="827" pageHeight="1169" math="0" shadow="0">
      <root>
        <mxCell id="0" />
        <mxCell id="1" parent="0" />
        <mxCell id="ucPU0BhQU4PBDt9Wd7j5-8" value="" style="rounded=1;whiteSpace=wrap;html=1;" vertex="1" parent="1">
          <mxGeometry x="340" y="200" width="280" height="290" as="geometry" />
        </mxCell>
        <mxCell id="ucPU0BhQU4PBDt9Wd7j5-1" value="支付中心后台服务" style="rounded=0;whiteSpace=wrap;html=1;" vertex="1" parent="1">
          <mxGeometry x="390" y="230" width="130" height="100" as="geometry" />
        </mxCell>
        <mxCell id="ucPU0BhQU4PBDt9Wd7j5-2" value="兴盛内部系统" style="ellipse;whiteSpace=wrap;html=1;" vertex="1" parent="1">
          <mxGeometry x="100" y="254" width="120" height="80" as="geometry" />
        </mxCell>
        <mxCell id="ucPU0BhQU4PBDt9Wd7j5-3" value="支付中心WEB" style="ellipse;whiteSpace=wrap;html=1;" vertex="1" parent="1">
          <mxGeometry x="409" y="390" width="120" height="80" as="geometry" />
        </mxCell>
        <mxCell id="ucPU0BhQU4PBDt9Wd7j5-4" value="第三方支付平台" style="ellipse;whiteSpace=wrap;html=1;" vertex="1" parent="1">
          <mxGeometry x="393" y="60" width="120" height="80" as="geometry" />
        </mxCell>
        <mxCell id="ucPU0BhQU4PBDt9Wd7j5-5" value="" style="endArrow=classic;html=1;rounded=0;entryX=0;entryY=0.5;entryDx=0;entryDy=0;exitX=1.008;exitY=0.357;exitDx=0;exitDy=0;exitPerimeter=0;" edge="1" parent="1" source="ucPU0BhQU4PBDt9Wd7j5-2" target="ucPU0BhQU4PBDt9Wd7j5-1">
          <mxGeometry width="50" height="50" relative="1" as="geometry">
            <mxPoint x="240" y="260" as="sourcePoint" />
            <mxPoint x="290" y="210" as="targetPoint" />
          </mxGeometry>
        </mxCell>
        <mxCell id="ucPU0BhQU4PBDt9Wd7j5-6" value="" style="endArrow=classic;html=1;rounded=0;exitX=0.425;exitY=1.025;exitDx=0;exitDy=0;exitPerimeter=0;entryX=0.415;entryY=0.01;entryDx=0;entryDy=0;entryPerimeter=0;" edge="1" parent="1" source="ucPU0BhQU4PBDt9Wd7j5-4" target="ucPU0BhQU4PBDt9Wd7j5-1">
          <mxGeometry width="50" height="50" relative="1" as="geometry">
            <mxPoint x="450" y="220" as="sourcePoint" />
            <mxPoint x="500" y="170" as="targetPoint" />
          </mxGeometry>
        </mxCell>
        <mxCell id="ucPU0BhQU4PBDt9Wd7j5-7" value="" style="endArrow=classic;html=1;rounded=0;entryX=0.425;entryY=1.038;entryDx=0;entryDy=0;entryPerimeter=0;exitX=0.306;exitY=0.007;exitDx=0;exitDy=0;exitPerimeter=0;" edge="1" parent="1" source="ucPU0BhQU4PBDt9Wd7j5-3" target="ucPU0BhQU4PBDt9Wd7j5-1">
          <mxGeometry width="50" height="50" relative="1" as="geometry">
            <mxPoint x="440" y="390" as="sourcePoint" />
            <mxPoint x="490" y="340" as="targetPoint" />
          </mxGeometry>
        </mxCell>
        <mxCell id="ucPU0BhQU4PBDt9Wd7j5-9" value="支&lt;div&gt;付&lt;/div&gt;&lt;div&gt;中&lt;/div&gt;&lt;div&gt;心&lt;/div&gt;&lt;div&gt;平&lt;/div&gt;&lt;div&gt;台&lt;/div&gt;" style="text;html=1;align=center;verticalAlign=middle;whiteSpace=wrap;rounded=0;" vertex="1" parent="1">
          <mxGeometry x="540" y="309" width="60" height="30" as="geometry" />
        </mxCell>
        <mxCell id="ucPU0BhQU4PBDt9Wd7j5-11" value="" style="endArrow=classic;html=1;rounded=0;exitX=-0.037;exitY=0.829;exitDx=0;exitDy=0;entryX=0.975;entryY=0.746;entryDx=0;entryDy=0;entryPerimeter=0;exitPerimeter=0;" edge="1" parent="1" source="ucPU0BhQU4PBDt9Wd7j5-1" target="ucPU0BhQU4PBDt9Wd7j5-2">
          <mxGeometry width="50" height="50" relative="1" as="geometry">
            <mxPoint x="270" y="350" as="sourcePoint" />
            <mxPoint x="320" y="300" as="targetPoint" />
          </mxGeometry>
        </mxCell>
        <mxCell id="ucPU0BhQU4PBDt9Wd7j5-12" value="open api" style="text;html=1;align=center;verticalAlign=middle;whiteSpace=wrap;rounded=0;" vertex="1" parent="1">
          <mxGeometry x="250" y="249" width="60" height="30" as="geometry" />
        </mxCell>
        <mxCell id="ucPU0BhQU4PBDt9Wd7j5-13" value="admin api" style="text;html=1;align=center;verticalAlign=middle;whiteSpace=wrap;rounded=0;" vertex="1" parent="1">
          <mxGeometry x="450" y="350" width="60" height="30" as="geometry" />
        </mxCell>
        <mxCell id="ucPU0BhQU4PBDt9Wd7j5-14" value="callback api" style="text;html=1;align=center;verticalAlign=middle;whiteSpace=wrap;rounded=0;" vertex="1" parent="1">
          <mxGeometry x="415" y="160" width="130" height="30" as="geometry" />
        </mxCell>
        <mxCell id="ucPU0BhQU4PBDt9Wd7j5-15" value="pay notify" style="text;html=1;align=center;verticalAlign=middle;whiteSpace=wrap;rounded=0;" vertex="1" parent="1">
          <mxGeometry x="260" y="279" width="60" height="30" as="geometry" />
        </mxCell>
      </root>
    </mxGraphModel>
  </diagram>
</mxfile>
